<svg width="43" height="38" viewBox="0 0 43 38" fill="none" xmlns="http://www.w3.org/2000/svg">
<path d="M32.9943 37.6934C32.6566 37.6946 32.3236 37.6215 32.0231 37.4802L21.2549 32.3063L10.4868 37.4802C10.1372 37.6489 9.74293 37.7243 9.34894 37.6976C8.95495 37.671 8.57702 37.5434 8.25809 37.3294C7.93917 37.1155 7.69205 36.8237 7.54483 36.4872C7.39761 36.1507 7.3562 35.7831 7.4253 35.4262L9.53669 24.5165L0.837742 16.7654C0.566338 16.5168 0.373808 16.2051 0.280815 15.8637C0.187821 15.5223 0.197873 15.1641 0.309893 14.8276C0.432269 14.4832 0.657379 14.1772 0.959676 13.9443C1.26197 13.7113 1.62935 13.5609 2.02012 13.5099L14.0551 11.9015L19.3547 1.96073C19.5276 1.63311 19.7975 1.35681 20.1336 1.16348C20.4697 0.970153 20.8583 0.867615 21.2549 0.867615C21.6516 0.867615 22.0402 0.970153 22.3763 1.16348C22.7124 1.35681 22.9823 1.63311 23.1552 1.96073L28.5181 11.8822L40.5531 13.4905C40.9439 13.5415 41.3113 13.692 41.6135 13.9249C41.9158 14.1578 42.141 14.4638 42.2633 14.8082C42.3754 15.1447 42.3854 15.5029 42.2924 15.8443C42.1994 16.1857 42.0069 16.4974 41.7355 16.746L33.0365 24.4971L35.1479 35.4068C35.2233 35.7701 35.1838 36.1456 35.0342 36.4889C34.8845 36.8323 34.6309 37.1292 34.3034 37.3446C33.921 37.5905 33.4607 37.7131 32.9943 37.6934Z" fill="#FCC419"/>
</svg>
